<?xml version="1.0" encoding="UTF-8"?>
<svg version="1.1" xmlns="http://www.w3.org/2000/svg" width="512" height="512">
<path d="M0 0 C0.9515094 0.00332336 1.9030188 0.00664673 2.88336182 0.0100708 C20.00149819 0.07980063 36.83460204 1.12945612 53.8125 3.375 C55.09415039 3.54418945 56.37580078 3.71337891 57.69628906 3.88769531 C67.53255163 5.23502581 67.53255163 5.23502581 69.8125 6.375 C69.8125 32.775 69.8125 59.175 69.8125 86.375 C44.0625 86.6875 44.0625 86.6875 36.00878906 86.76293945 C33.86521727 86.79527169 31.72166091 86.82865129 29.578125 86.86328125 C27.95366455 86.87264709 27.95366455 86.87264709 26.29638672 86.88220215 C12.92298574 87.13035905 0.29106502 90.3538157 -9.9375 99.375 C-21.34063394 111.76732146 -22.47629555 127.24783931 -22.6015625 143.2265625 C-22.61853864 144.56666138 -22.63635972 145.90674982 -22.6550293 147.24682617 C-22.71771155 152.16443143 -22.76416307 157.08223281 -22.8125 162 C-22.998125 178.520625 -22.998125 178.520625 -23.1875 195.375 C6.1825 195.375 35.5525 195.375 65.8125 195.375 C64.04393701 208.9339829 62.26508206 222.43930457 60.11328125 235.93359375 C59.89763102 237.30012713 59.68226023 238.66670464 59.46716309 240.0333252 C58.68978275 244.96024506 57.90710934 249.88632861 57.125 254.8125 C54.4953125 271.4259375 54.4953125 271.4259375 51.8125 288.375 C27.0625 288.375 2.3125 288.375 -23.1875 288.375 C-23.1875 362.295 -23.1875 436.215 -23.1875 512.375 C-56.5175 512.375 -89.8475 512.375 -124.1875 512.375 C-124.1875 438.455 -124.1875 364.535 -124.1875 288.375 C-151.2475 288.375 -178.3075 288.375 -206.1875 288.375 C-206.1875 257.685 -206.1875 226.995 -206.1875 195.375 C-179.1275 195.375 -152.0675 195.375 -124.1875 195.375 C-124.22230469 189.32671875 -124.25710937 183.2784375 -124.29296875 177.046875 C-124.30833029 173.17316719 -124.32277443 169.29949791 -124.33398438 165.42578125 C-124.35179131 159.30183943 -124.37265907 153.17803445 -124.41381836 147.05419922 C-124.44685483 142.10691091 -124.46444442 137.15976972 -124.47213173 132.21237946 C-124.47759701 130.34211161 -124.48826397 128.47185012 -124.50469017 126.60164642 C-124.64232794 110.25327227 -123.48721957 93.80585172 -118.5 78.125 C-118.24726318 77.309104 -117.99452637 76.49320801 -117.73413086 75.65258789 C-115.07455086 67.44042519 -111.42612106 59.87656761 -107.1875 52.375 C-106.64480469 51.39273438 -106.10210937 50.41046875 -105.54296875 49.3984375 C-93.04805695 28.2999733 -72.6791399 14.42187382 -49.875 6.5625 C-49.08287109 6.28446533 -48.29074219 6.00643066 -47.47460938 5.7199707 C-31.9490852 0.66432569 -16.19952018 -0.13485148 0 0 Z " fill="#F7F2EF" transform="translate(324.1875,-0.375)"/>
</svg>
