<?xml version="1.0" encoding="UTF-8"?>
<svg version="1.1" xmlns="http://www.w3.org/2000/svg" width="1080" height="1080">
<path d="M0 0 C4.96173038 0.00232392 9.92345733 0.00255426 14.8851881 0.00148464 C15.60434462 0.00133141 16.32350113 0.00117817 17.06445026 0.0010203 C18.52756532 0.00070042 19.99068038 0.0003762 21.45379543 0.00004771 C35.02105884 -0.00277154 48.58831538 0.00042313 62.15557766 0.00584807 C73.67612832 0.01031281 85.19666888 0.00953587 96.71721935 0.00492931 C110.25179744 -0.0004804 123.78636958 -0.00249719 137.3209486 0.00054158 C138.7772576 0.00085997 140.2335666 0.00117434 141.6898756 0.00148464 C142.76334586 0.00171605 142.76334586 0.00171605 143.85850239 0.00195214 C148.78666999 0.00279835 153.71483361 0.00137652 158.6430006 -0.00099491 C184.68729011 -0.01240149 210.72520391 0.01012749 236.76409435 0.59281994 C237.68170544 0.61303258 238.59931652 0.63324523 239.544734 0.65407038 C253.51393698 0.97177985 267.39111705 1.61444338 281.28753185 3.13530041 C282.44688244 3.25212169 283.60623302 3.36894298 284.80071545 3.48930431 C299.94176312 5.04147372 314.60110939 7.36643163 329.35003185 11.07280041 C330.32941219 11.31743023 330.32941219 11.31743023 331.328578 11.56700207 C344.31508488 14.84907309 356.76209785 19.29897503 369.03753185 24.63530041 C369.89218029 25.00010509 370.74682873 25.36490978 371.6273756 25.74076916 C386.64988782 32.21794916 400.1933552 40.32480272 413.28753185 50.13530041 C414.50569592 51.00928478 414.50569592 51.00928478 415.74846935 51.90092541 C416.48323498 52.43201916 417.2180006 52.96311291 417.97503185 53.51030041 C418.61827404 53.97178478 419.26151623 54.43326916 419.9242506 54.90873791 C420.37413342 55.31350353 420.82401623 55.71826916 421.28753185 56.13530041 C421.28753185 56.79530041 421.28753185 57.45530041 421.28753185 58.13530041 C421.90628185 58.21780041 422.52503185 58.30030041 423.16253185 58.38530041 C425.28753185 59.13530041 425.28753185 59.13530041 426.22503185 61.07280041 C427.68637454 63.90952444 429.36396725 63.97947254 432.28753185 65.13530041 C435.08030665 67.64879772 437.48571504 70.3537091 439.85003185 73.26030041 C442.08810269 76.11592057 442.08810269 76.11592057 444.53753185 77.82280041 C446.28753185 79.13530041 446.28753185 79.13530041 447.28753185 82.13530041 C448.00553967 82.69475353 448.72354748 83.25420666 449.4633131 83.83061291 C453.11245228 86.80847198 455.67993984 90.24435443 458.47503185 94.01030041 C459.0080592 94.70510509 459.54108654 95.39990978 460.09026623 96.11576916 C462.99556681 99.99681219 465.06811207 103.36235673 466.28753185 108.13530041 C466.94753185 108.13530041 467.60753185 108.13530041 468.28753185 108.13530041 C480.23673373 128.47436743 490.32530644 149.23732534 496.28753185 172.13530041 C496.56097424 173.15656017 496.83441662 174.17781994 497.11614513 175.23002697 C512.36877536 232.92512088 510.7834539 295.14305124 510.6616702 354.40083978 C510.64748375 361.50312945 510.64970376 368.60539474 510.65177932 375.70769496 C510.65491999 388.4175563 510.64358573 401.12736035 510.62371349 413.8372047 C510.6046701 426.02114164 510.59764813 438.20501175 510.60320568 450.38896251 C510.60932913 463.85224276 510.60897294 477.31549424 510.59771985 490.77877218 C510.59651325 492.22642212 510.59530727 493.67407205 510.59410191 495.12172199 C510.5931966 496.18855503 510.5931966 496.18855503 510.592273 497.27694025 C510.58847562 502.16771302 510.58879246 507.05847459 510.59068775 511.94924808 C510.60230586 551.74504183 510.4541341 591.6646026 506.56292248 631.31156994 C506.37243245 633.26476826 506.19210306 635.21897443 506.01995373 637.17387462 C504.83451554 650.52248892 502.79214904 663.51144992 499.85003185 676.57280041 C499.56168468 677.85815685 499.27333752 679.1435133 498.97625256 680.46781994 C497.43947035 687.03215524 495.64609774 693.33943581 493.23723888 699.63676525 C492.34381229 701.98723512 491.54623556 704.34764117 490.7758131 706.74076916 C489.23684994 711.40954545 487.3972124 715.92521405 485.47503185 720.44780041 C485.12319836 721.27739269 484.77136486 722.10698498 484.40886974 722.96171642 C477.9441081 738.06084956 470.21332013 752.03112911 460.28753185 765.13530041 C459.42371246 766.30417373 458.56045586 767.47346313 457.6976881 768.64311291 C456.81176251 769.82860189 455.92505506 771.01350701 455.03753185 772.19780041 C454.62527355 772.75846203 454.21301525 773.31912365 453.78826427 773.89677501 C451.53331925 776.86785143 449.71243744 778.66637928 446.28753185 780.13530041 C446.14315685 780.73342541 445.99878185 781.33155041 445.85003185 781.94780041 C444.99467327 785.27419489 442.7635979 786.83198315 440.28753185 789.13530041 C439.20471935 790.27998791 439.20471935 790.27998791 438.10003185 791.44780041 C436.28753185 793.13530041 436.28753185 793.13530041 434.28753185 793.13530041 C433.99878185 793.75405041 433.71003185 794.37280041 433.41253185 795.01030041 C432.28753185 797.13530041 432.28753185 797.13530041 430.28753185 799.13530041 C429.29753185 799.13530041 428.30753185 799.13530041 427.28753185 799.13530041 C427.09803967 799.68186291 426.90854748 800.22842541 426.7133131 800.79155041 C424.62143544 804.23025341 421.66190879 806.23615407 418.47503185 808.63530041 C417.23926935 809.58310571 416.00359082 810.53102051 414.7680006 811.47905041 C414.17398449 811.93006115 413.57996838 812.38107189 412.96795177 812.84574962 C411.47223627 813.99355862 410.0028312 815.17546997 408.53753185 816.36186291 C406.23450132 818.17709878 403.83692982 819.60406178 401.27190685 821.01811291 C399.09028764 822.24634734 396.97704427 823.56483967 394.85003185 824.88530041 C362.95926522 843.97180434 326.51277385 854.24536958 289.78753185 858.38530041 C288.78932919 858.50086284 288.78932919 858.50086284 287.77096081 858.61875988 C260.65616152 861.69126549 233.28595602 862.44678686 206.022717 862.39674974 C202.24075311 862.39209393 198.45880496 862.3992717 194.6768446 862.40470959 C187.32317329 862.41346987 179.96954346 862.41174258 172.61587071 862.4058843 C166.62396459 862.40131399 160.63206985 862.40077767 154.64016247 862.40293194 C153.34691241 862.40339164 153.34691241 862.40339164 152.02753609 862.40386062 C150.27449838 862.40450026 148.52146067 862.40514869 146.76842296 862.4058058 C130.44029011 862.41146993 114.11217995 862.4050134 97.78405082 862.39420507 C83.86104619 862.38527317 69.93807495 862.38682633 56.01507092 862.39604259 C39.73390214 862.40681524 23.45275311 862.41092098 7.17158127 862.40481807 C5.42602126 862.40418116 3.68046125 862.40355241 1.93490124 862.40293194 C1.07669189 862.40262339 0.21848254 862.40231483 -0.66573316 862.40199693 C-6.63042328 862.40029081 -12.59510057 862.40313929 -18.5597887 862.40789104 C-25.85738695 862.41357849 -33.15494235 862.41182239 -40.45253587 862.40132955 C-44.15527617 862.39617603 -47.85794585 862.3938321 -51.56068516 862.40062786 C-78.73579593 862.44634171 -106.00249313 861.49324334 -133.02496815 858.44780041 C-134.11182911 858.32616527 -134.11182911 858.32616527 -135.22064686 858.20207287 C-165.61288588 854.72956205 -195.10644285 846.31925975 -222.71246815 833.13530041 C-223.65992908 832.69573009 -224.60739002 832.25615978 -225.5835619 831.80326916 C-241.73315345 824.07730456 -257.62665252 813.32890133 -270.71246815 801.13530041 C-270.71246815 800.47530041 -270.71246815 799.81530041 -270.71246815 799.13530041 C-271.43434315 798.90842541 -272.15621815 798.68155041 -272.89996815 798.44780041 C-278.11183331 796.01559666 -281.19231298 791.53549437 -284.71246815 787.13530041 C-285.61996815 786.24842541 -286.52746815 785.36155041 -287.46246815 784.44780041 C-289.71246815 782.13530041 -289.71246815 782.13530041 -289.71246815 780.13530041 C-290.25903065 779.94580822 -290.80559315 779.75631603 -291.36871815 779.56108166 C-294.80742115 777.46920399 -296.81332182 774.50967734 -299.21246815 771.32280041 C-300.16027345 770.0870379 -301.10818825 768.85135937 -302.05621815 767.61576916 C-302.50722889 767.02175304 -302.95823963 766.42773693 -303.42291737 765.81572033 C-304.57072636 764.32000482 -305.75263771 762.85059975 -306.93903065 761.38530041 C-308.75426652 759.08226987 -310.18122952 756.68469837 -311.59528065 754.11967541 C-312.82351508 751.9380562 -314.14200742 749.82481283 -315.46246815 747.69780041 C-343.05678799 701.59171324 -349.62585185 649.40505486 -352.30084705 596.75248791 C-352.36669978 595.45819299 -352.43255251 594.16389808 -352.50040078 592.83038212 C-353.91055025 564.67246108 -354.16009979 536.53801253 -354.11836823 508.34618605 C-354.11134258 503.46363596 -354.11072867 498.58111709 -354.11391544 493.69856334 C-354.11437514 492.98577002 -354.11483484 492.2729767 -354.11530847 491.53858358 C-354.11626828 490.0875775 -354.11724094 488.63657143 -354.11822625 487.18556536 C-354.12664627 473.78944086 -354.11716221 460.39337936 -354.10082515 446.99726523 C-354.0874345 435.66922214 -354.08976646 424.34127152 -354.10358143 413.01323009 C-354.11988064 399.64319017 -354.12582358 386.27320453 -354.11674464 372.90315605 C-354.11578965 371.45944986 -354.11484653 370.01574367 -354.11391544 368.57203747 C-354.1132212 367.50837045 -354.1132212 367.50837045 -354.11251294 366.42321522 C-354.10999457 361.58456384 -354.11419145 356.7459493 -354.1213541 351.90730358 C-354.28070071 225.42090781 -354.28070071 225.42090781 -339.71246815 172.13530041 C-339.46239002 171.21490978 -339.2123119 170.29451916 -338.95465565 169.34623791 C-333.62465053 150.19336239 -325.38743983 131.68041302 -315.39996815 114.51030041 C-315.04096424 113.88768322 -314.68196033 113.26506603 -314.31207752 112.62358166 C-313.44809484 111.12601167 -312.58067481 109.63042553 -311.71246815 108.13530041 C-311.05246815 108.13530041 -310.39246815 108.13530041 -309.71246815 108.13530041 C-309.36635487 106.85139416 -309.36635487 106.85139416 -309.0132494 105.54155041 C-307.54399296 101.69412813 -305.4554773 98.8042823 -302.89996815 95.63530041 C-302.47393299 95.09260509 -302.04789783 94.54990978 -301.60895252 93.99076916 C-300.32346064 92.36105327 -299.02092871 90.74661375 -297.71246815 89.13530041 C-297.26081287 88.57198009 -296.8091576 88.00865978 -296.3438158 87.42826916 C-292.95068755 83.25441011 -292.95068755 83.25441011 -290.71246815 82.13530041 C-290.27934315 81.39280041 -289.84621815 80.65030041 -289.39996815 79.88530041 C-287.50258775 76.7932731 -285.33600357 74.63390557 -282.71246815 72.13530041 C-281.47496815 70.86686291 -281.47496815 70.86686291 -280.21246815 69.57280041 C-273.60990404 63.13530041 -273.60990404 63.13530041 -270.71246815 63.13530041 C-270.34121815 62.17623791 -270.34121815 62.17623791 -269.96246815 61.19780041 C-268.38258875 58.5909994 -267.54466504 58.84334963 -264.71246815 58.13530041 C-264.46110096 57.55908947 -264.20973377 56.98287853 -263.9507494 56.38920666 C-262.20686571 53.21500827 -259.8133223 51.69584887 -256.89996815 49.57280041 C-255.86227283 48.80838634 -254.82457752 48.04397228 -253.7554369 47.25639416 C-251.12394575 45.42211984 -248.48328975 43.7467637 -245.71246815 42.13530041 C-244.91067127 41.65190197 -244.1088744 41.16850353 -243.28278065 40.67045666 C-242.47582752 40.18448009 -241.6688744 39.69850353 -240.83746815 39.19780041 C-240.03567127 38.71440197 -239.2338744 38.23100353 -238.40778065 37.73295666 C-232.87668644 34.45438053 -227.36897792 31.38626072 -221.52496815 28.69780041 C-220.53907703 28.24340587 -220.53907703 28.24340587 -219.53326893 27.77983166 C-217.59572926 26.89216485 -215.6548966 26.01220945 -213.71246815 25.13530041 C-212.75469471 24.70088634 -211.79692127 24.26647228 -210.8101244 23.81889416 C-183.01153235 11.73428384 -154.17286926 6.50440379 -124.26715565 3.11576916 C-123.15704624 2.98806888 -123.15704624 2.98806888 -122.02451038 2.85778881 C-108.08025153 1.33294094 -94.10114445 0.87981869 -80.08746815 0.58110119 C-79.13385395 0.56013889 -78.18023975 0.5391766 -77.19772816 0.51757909 C-51.46763953 -0.03355752 -25.73477766 -0.01238136 0 0 Z M-94.45807362 80.88676525 C-98.45935976 81.12620286 -102.4621455 81.31442551 -106.4663744 81.49858166 C-130.56895316 82.73276951 -154.31371618 86.97397341 -176.71246815 96.13530041 C-177.46785877 96.44145275 -178.2232494 96.74760509 -179.00153065 97.06303478 C-185.98576448 99.9251306 -192.43109932 102.88508645 -198.71246815 107.13530041 C-200.19746815 107.63030041 -200.19746815 107.63030041 -201.71246815 108.13530041 C-201.71246815 108.79530041 -201.71246815 109.45530041 -201.71246815 110.13530041 C-202.39309315 110.36217541 -203.07371815 110.58905041 -203.77496815 110.82280041 C-209.26000395 113.27356108 -213.55023702 116.84694106 -217.71246815 121.13530041 C-218.87908485 122.09369456 -220.04575952 123.05201816 -221.21246815 124.01030041 C-232.10208047 133.47776187 -242.4820104 146.16968303 -248.71246815 159.13530041 C-249.60965565 160.89873791 -249.60965565 160.89873791 -250.52496815 162.69780041 C-251.25580316 164.17614348 -251.98477326 165.65540912 -252.71246815 167.13530041 C-253.16750721 168.03764416 -253.62254627 168.93998791 -254.0913744 169.86967541 C-273.374771 209.54413107 -272.51066447 255.0138671 -273.71246815 298.13530041 C-273.74900501 299.44063732 -273.78554188 300.74597423 -273.82318592 302.09086681 C-276.1793304 389.56656472 -276.28544936 477.66305396 -272.48850346 598.12217403 C-272.40228551 600.14347199 -272.32090551 602.16497448 -272.23965931 604.18647838 C-271.56567715 620.47194837 -269.93170795 636.15557435 -266.71246815 652.13530041 C-266.4551722 653.48713364 -266.19968221 654.83931278 -265.94659901 656.19194103 C-263.00981249 671.58800022 -257.82951711 686.2047733 -250.71246815 700.13530041 C-250.29223377 700.97319103 -249.8719994 701.81108166 -249.43903065 702.67436291 C-243.27371059 714.38433321 -234.40945845 726.13095226 -224.71246815 735.13530041 C-223.60065174 736.16783947 -223.60065174 736.16783947 -222.4663744 737.22123791 C-217.41989988 741.84525261 -212.28426821 746.16291012 -206.71246815 750.13530041 C-205.95860828 750.70087658 -205.95860828 750.70087658 -205.18951893 751.27787853 C-200.97635524 754.39169767 -196.67385018 756.85728213 -191.96246815 759.13530041 C-191.25710926 759.47996349 -190.55175037 759.82462658 -189.82501698 760.179734 C-188.42076763 760.86319409 -187.01496801 761.54347997 -185.60748768 762.22026134 C-184.029881 762.98203277 -182.46169999 763.76328663 -180.8960619 764.54936291 C-142.51401222 783.16976259 -97.37138929 781.98048106 -55.71246815 783.13530041 C-54.70852135 783.1631789 -54.70852135 783.1631789 -53.68429279 783.1916206 C32.16947331 785.54170161 118.54559627 785.50481576 245.20931149 781.91133571 C247.23326442 781.82511228 249.25742198 781.74373508 251.28158092 781.66249157 C267.58660747 780.98881122 283.28882998 779.35979006 299.28753185 776.13530041 C300.63928042 775.87798729 301.99137796 775.6224959 303.34392834 775.36943126 C322.25994311 771.76149174 339.66334563 764.73685904 356.28753185 755.13530041 C356.94753185 754.80530041 357.60753185 754.47530041 358.28753185 754.13530041 C358.28753185 753.47530041 358.28753185 752.81530041 358.28753185 752.13530041 C358.96815685 751.90842541 359.64878185 751.68155041 360.35003185 751.44780041 C363.98640275 749.82303894 367.31582448 747.80726784 370.28753185 745.13530041 C370.28753185 744.47530041 370.28753185 743.81530041 370.28753185 743.13530041 C371.16151623 742.7350465 371.16151623 742.7350465 372.05315685 742.32670666 C379.23377026 738.49788307 385.39522004 731.523931 390.28753185 725.13530041 C390.28753185 724.47530041 390.28753185 723.81530041 390.28753185 723.13530041 C390.94753185 723.13530041 391.60753185 723.13530041 392.28753185 723.13530041 C394.10857386 720.96071763 394.10857386 720.96071763 395.91253185 718.26030041 C396.54417248 717.35537853 397.1758131 716.45045666 397.82659435 715.51811291 C399.4617629 713.31696335 399.4617629 713.31696335 399.28753185 711.13530041 C399.94753185 711.13530041 400.60753185 711.13530041 401.28753185 711.13530041 C402.17581345 709.35873722 403.06318575 707.58171694 403.9476881 705.80326916 C404.94338833 703.82057745 405.95348933 701.84510436 406.9711256 699.87358166 C410.60820385 692.76368032 413.73588396 685.70910482 416.28753185 678.13530041 C416.67263927 677.03492443 417.0577467 675.93454845 417.45452404 674.80082775 C429.57702877 639.61726245 429.26791912 601.95162328 430.28753185 565.13530041 C430.31541035 564.12976368 430.31541035 564.12976368 430.34385204 563.10391308 C432.73285961 475.65551391 432.84265685 387.63088635 429.06356716 264.74906612 C428.97728854 262.68917847 428.89546964 260.62915783 428.81472301 258.56904674 C428.14736858 242.11611932 426.54531705 226.27785051 423.28753185 210.13530041 C423.02964262 208.77353631 422.77395586 207.41135197 422.52117443 206.04863048 C419.98078325 192.58445535 415.36778396 179.39956318 409.28753185 167.13530041 C408.96139904 166.44565197 408.63526623 165.75600353 408.2992506 165.04545666 C401.11343817 150.11197815 391.13536179 137.65402395 379.28753185 126.13530041 C378.50378185 125.33092541 377.72003185 124.52655041 376.91253185 123.69780041 C368.56164068 114.8168947 368.56164068 114.8168947 358.28753185 110.13530041 C358.28753185 109.47530041 358.28753185 108.81530041 358.28753185 108.13530041 C356.37659407 107.17983151 354.46543002 106.2248126 352.55315685 105.27201916 C351.16345258 104.57477098 349.77715299 103.87062046 348.39690685 103.15483166 C342.50426057 100.12185195 336.44703754 97.57505869 330.28753185 95.13530041 C328.55696545 94.42180431 328.55696545 94.42180431 326.7914381 93.69389416 C297.96197935 82.29167284 266.8407981 81.53285237 236.28753185 80.13530041 C235.34160168 80.08997173 234.3956715 80.04464306 233.42107677 79.99794079 C216.46511766 79.18784755 199.51021555 78.80816473 182.53753185 78.57280041 C181.44813305 78.55729011 181.44813305 78.55729011 180.33672619 78.54146648 C43.99570036 76.31206269 43.99570036 76.31206269 -94.45807362 80.88676525 Z " fill="#F7F2EF" transform="translate(461.71246814727783,108.8646995946765)"/>
<path d="M0 0 C0.80937012 0.00725098 1.61874023 0.01450195 2.45263672 0.02197266 C15.16853464 0.17746239 27.01932231 2.43076165 39.36425781 5.39550781 C41.91791689 5.98117471 44.47469244 6.47343194 47.05078125 6.94921875 C52.24969971 7.96991254 57.14432091 9.58903779 62.125 11.375 C62.96675781 11.66632813 63.80851562 11.95765625 64.67578125 12.2578125 C69.37410327 13.9186147 73.8045071 15.80907558 78.22705078 18.10302734 C81.34940519 19.68269274 84.62606197 20.84443807 87.8984375 22.0703125 C90 23 90 23 92 25 C93.70818249 25.72269259 95.41715811 26.44366661 97.1328125 27.1484375 C99.97479591 28.44457219 102.44141903 30.22011759 105 32 C105.75410156 32.45246094 106.50820313 32.90492188 107.28515625 33.37109375 C110.33953235 35.20371941 113.33038406 37.11447555 116.3125 39.0625 C117.38113281 39.75472656 118.44976563 40.44695312 119.55078125 41.16015625 C120.35902344 41.76730469 121.16726563 42.37445313 122 43 C122 43.66 122 44.32 122 45 C122.59296875 45.11085938 123.1859375 45.22171875 123.796875 45.3359375 C126.22836847 46.06883447 127.38238166 46.92963772 129.25 48.625 C130.16652344 49.44677734 130.16652344 49.44677734 131.1015625 50.28515625 C131.72804688 50.85105469 132.35453125 51.41695313 133 52 C133.58523438 52.49371094 134.17046875 52.98742187 134.7734375 53.49609375 C145.22984424 62.34212561 154.58129067 72.21298846 163 83 C164.11181641 84.3303125 164.11181641 84.3303125 165.24609375 85.6875 C167 88 167 88 167 90 C167.66 90 168.32 90 169 90 C170.515625 92.08984375 170.515625 92.08984375 172.25 94.9375 C174.40632745 98.43653032 176.58551283 101.87989235 178.9375 105.25 C196.19125977 131.15352263 205.04505611 161.58608251 210 192 C210.18030762 193.06186523 210.36061523 194.12373047 210.54638672 195.21777344 C211.10391294 199.86642587 211.18136483 204.43548937 211.203125 209.11328125 C211.20882507 210.08170456 211.21452515 211.05012787 211.22039795 212.04789734 C211.22981516 214.09612957 211.23636884 216.14437672 211.24023438 218.19262695 C211.2498506 221.26477067 211.28086827 224.3362186 211.3125 227.40820312 C211.37841608 239.60816643 210.48053537 251.05704503 208 263 C207.79584473 264.04454346 207.59168945 265.08908691 207.38134766 266.1652832 C206.85443233 268.78716032 206.28595097 271.39360524 205.6875 274 C205.37437866 275.36729248 205.37437866 275.36729248 205.05493164 276.76220703 C203.6056879 282.8883377 201.91286792 288.89795552 199.9375 294.875 C199.70442139 295.58140625 199.47134277 296.2878125 199.23120117 297.015625 C197.80053467 301.16024056 196.0467104 304.9904254 194.03149414 308.88061523 C192.91900618 311.16641593 192.0032204 313.48191611 191.09375 315.85546875 C188.97875538 321.25345551 186.32255055 326.25575072 183.5 331.3125 C183.02691406 332.17939453 182.55382812 333.04628906 182.06640625 333.93945312 C179.66052752 338.28802895 177.17242894 342.15703494 174 346 C173.67 346.99 173.34 347.98 173 349 C172.34 349 171.68 349 171 349 C170.690625 349.99 170.690625 349.99 170.375 351 C168.37185751 355.37049271 165.42152106 360.78923947 161 363 C160.319375 364.1446875 160.319375 364.1446875 159.625 365.3125 C157.97007534 368.04949078 156.28775685 369.77579196 154 372 C152.97711606 373.22746073 151.95655139 374.4568556 150.9375 375.6875 C147.25630806 379.94909586 143.07176982 383.35779643 138.6484375 386.82421875 C135.9163703 389.06870464 133.48890532 391.49127855 131 394 C125.22665255 399.02458566 119.12856004 403.34688389 112.62109375 407.36328125 C110.35294686 408.77960546 108.18229616 410.26976787 106 411.8125 C95.53417688 418.83387501 83.81907619 424.67023942 72 429 C70.906875 429.495 69.81375 429.99 68.6875 430.5 C59.81206122 434.11034798 50.62833049 436.41250545 41.3125 438.5625 C40.46550537 438.76020996 39.61851074 438.95791992 38.74584961 439.16162109 C35.83780077 439.81588489 32.92276692 440.41483157 30 441 C28.71013184 441.26619141 27.42026367 441.53238281 26.09130859 441.80664062 C14.70250219 444.01756475 3.56093528 444.46543912 -8.02246094 444.39111328 C-10.99721096 444.37501509 -13.97060297 444.39106878 -16.9453125 444.41015625 C-28.94233225 444.4236334 -40.25261911 443.41145985 -52 441 C-53.04542969 440.79600586 -54.09085938 440.59201172 -55.16796875 440.38183594 C-57.7887654 439.85416496 -60.39448845 439.28574817 -63 438.6875 C-64.36729248 438.37437866 -64.36729248 438.37437866 -65.76220703 438.05493164 C-71.8883377 436.6056879 -77.89795552 434.91286792 -83.875 432.9375 C-84.93460937 432.58788208 -84.93460937 432.58788208 -86.015625 432.23120117 C-90.16024056 430.80053467 -93.9904254 429.0467104 -97.88061523 427.03149414 C-100.16641593 425.91900618 -102.48191611 425.0032204 -104.85546875 424.09375 C-110.25345551 421.97875538 -115.25575072 419.32255055 -120.3125 416.5 C-121.6128418 415.79037109 -121.6128418 415.79037109 -122.93945312 415.06640625 C-127.28470109 412.66236868 -131.18581028 410.20260413 -135 407 C-136.96655195 405.66867345 -138.94629109 404.35665765 -140.9375 403.0625 C-146.18125284 399.59236944 -150.89375365 396.15639507 -155.296875 391.6484375 C-158.00854939 388.99162358 -160.83918112 386.67011196 -163.8125 384.3125 C-168.67462951 380.37773787 -172.56975641 376.19965298 -176.28125 371.12890625 C-177.91456138 368.92347086 -177.91456138 368.92347086 -180.15625 367.40234375 C-182 366 -182 366 -183 363 C-183.74378906 362.26265625 -184.48757813 361.5253125 -185.25390625 360.765625 C-188.33737619 357.66022427 -190.57749325 354.4118884 -192.9375 350.75 C-193.82135513 349.39566398 -194.70546806 348.04149616 -195.58984375 346.6875 C-196.21802002 345.72070312 -196.21802002 345.72070312 -196.85888672 344.734375 C-198.19333854 342.70614528 -199.59764316 340.73167803 -201 338.75 C-207.93172886 328.35240671 -213.70728493 316.71795194 -218 305 C-218.7425 303.3603125 -218.7425 303.3603125 -219.5 301.6875 C-223.11034798 292.81206122 -225.41250545 283.62833049 -227.5625 274.3125 C-227.85906494 273.04200806 -227.85906494 273.04200806 -228.16162109 271.74584961 C-228.81588988 268.83777857 -229.41520686 265.9228677 -230 263 C-230.26546631 261.70723145 -230.53093262 260.41446289 -230.80444336 259.08251953 C-232.99090701 247.77313285 -233.49661351 236.70018809 -233.44604492 225.19726562 C-233.43754699 222.26620785 -233.46641352 219.3371167 -233.49804688 216.40625 C-233.54409938 203.73326459 -232.14533563 191.81458709 -229.51361084 179.42376709 C-228.84526365 176.26978785 -228.22686908 173.10671409 -227.60830688 169.94265747 C-223.4828841 149.67216866 -215.18018996 130.39780834 -205.3125 112.3125 C-204.84875977 111.46236328 -204.38501953 110.61222656 -203.90722656 109.73632812 C-201.55220119 105.50779444 -199.11747342 101.72235632 -196 98 C-194.66352458 95.88452924 -193.4043833 93.73812536 -192.1484375 91.57421875 C-191.76945312 91.05472656 -191.39046875 90.53523438 -191 90 C-190.34 90 -189.68 90 -189 90 C-188.76667969 89.28457031 -188.53335938 88.56914062 -188.29296875 87.83203125 C-186.76277295 84.48039393 -184.84056021 82.36267551 -182.3125 79.6875 C-179.27646313 76.43802581 -176.26641931 73.19138723 -173.375 69.8125 C-167.99682007 63.64081811 -162.16878461 57.99824568 -155.953125 52.67578125 C-154.63547519 51.54523772 -153.33352363 50.39617241 -152.046875 49.23046875 C-151.43328125 48.68003906 -150.8196875 48.12960937 -150.1875 47.5625 C-149.64480469 47.06878906 -149.10210937 46.57507813 -148.54296875 46.06640625 C-147 45 -147 45 -144 45 C-143.67 44.01 -143.34 43.02 -143 42 C-140.671875 40.28125 -140.671875 40.28125 -137.75 38.5 C-136.31914062 37.61828125 -136.31914062 37.61828125 -134.859375 36.71875 C-133.05015613 35.63124139 -131.23800848 34.54857775 -129.421875 33.47265625 C-126.29008941 31.56832856 -123.29463522 29.48730923 -120.28125 27.40234375 C-117.9195418 25.95054025 -115.58138364 24.99668932 -113 24 C-111.948125 23.38125 -110.89625 22.7625 -109.8125 22.125 C-102.99895053 18.15165582 -95.37282863 15.71165516 -87.96875 13.0703125 C-85.87734125 12.31630461 -83.79463341 11.53794281 -81.71875 10.7421875 C-74.46825137 8.01508554 -67.39144567 6.06902105 -59.76953125 4.6875 C-57.29906604 4.23692811 -54.83675794 3.73842773 -52.38671875 3.1875 C-35.19222211 -0.6540202 -17.53438699 -0.27442882 0 0 Z M-34 81 C-35.80210937 81.29197266 -35.80210937 81.29197266 -37.640625 81.58984375 C-57.33475423 85.13059677 -75.68556865 92.44543931 -91.82421875 104.39453125 C-93.48216583 105.61789974 -95.19198985 106.77128755 -96.921875 107.890625 C-100.05762964 110.03949239 -102.77104797 112.3604696 -105.5625 114.9375 C-106.47128906 115.77152344 -107.38007813 116.60554688 -108.31640625 117.46484375 C-112.23657938 121.15397227 -112.23657938 121.15397227 -116 125 C-116 125.66 -116 126.32 -116 127 C-116.99 127.33 -117.98 127.66 -119 128 C-125.4025721 134.68455066 -130.20051187 143.11933302 -135 151 C-135.68320312 152.10730469 -136.36640625 153.21460938 -137.0703125 154.35546875 C-147.56416624 172.56539141 -152.51487601 193.16768697 -154 214 C-154.05124023 214.71381836 -154.10248047 215.42763672 -154.15527344 216.16308594 C-154.43113241 220.79797269 -154.32197739 225.37385317 -154 230 C-153.94102539 230.86641113 -153.88205078 231.73282227 -153.82128906 232.62548828 C-151.81990224 258.55901396 -143.37433377 282.92017692 -128 304 C-127.33291016 304.93585938 -127.33291016 304.93585938 -126.65234375 305.890625 C-125.14153559 307.96114761 -123.58171214 309.98305164 -122 312 C-120.90365234 313.41152344 -120.90365234 313.41152344 -119.78515625 314.8515625 C-114.15463328 321.87859749 -108.19396258 327.51888565 -101 333 C-98.7109372 334.82436584 -96.42755867 336.6554274 -94.1484375 338.4921875 C-88.76820825 342.68734423 -83.07725319 345.9191169 -77 349 C-75.88753906 349.56847656 -74.77507812 350.13695312 -73.62890625 350.72265625 C-51.77129534 361.5856075 -27.43383285 366.71295389 -3 365 C-2.13503906 364.94102539 -1.27007813 364.88205078 -0.37890625 364.82128906 C25.55650626 362.82009983 49.91853344 354.37553243 71 339 C71.62390625 338.55527344 72.2478125 338.11054687 72.890625 337.65234375 C74.96114761 336.14153559 76.98305164 334.58171214 79 333 C80.41152344 331.90365234 80.41152344 331.90365234 81.8515625 330.78515625 C88.87859749 325.15463328 94.51888565 319.19396258 100 312 C101.82436584 309.7109372 103.6554274 307.42755867 105.4921875 305.1484375 C109.68532561 299.7707971 112.91897111 294.07356869 116 288 C116.48339844 287.05769531 116.96679688 286.11539063 117.46484375 285.14453125 C128.26346301 263.00306524 133.77258537 238.69356344 132 214 C131.94102539 213.17274414 131.88205078 212.34548828 131.82128906 211.49316406 C129.35712668 181.16753897 117.61393563 149.15428402 96 127 C95.34 127 94.68 127 94 127 C93.773125 126.443125 93.54625 125.88625 93.3125 125.3125 C90.51132391 120.37709451 85.64812583 116.6852167 81.5 112.875 C80.12328125 111.60269531 80.12328125 111.60269531 78.71875 110.3046875 C76.22084173 108.18720779 73.83290881 106.62004265 71 105 C69.44797866 103.96531911 67.89608959 102.93043308 66.34667969 101.8918457 C48.3005534 89.92336404 28.39610492 82.9834319 7 80 C6.10152344 79.86851562 5.20304688 79.73703125 4.27734375 79.6015625 C-8.53415786 78.01883943 -21.31562555 78.87255745 -34 81 Z " fill="#F7F2EF" transform="translate(551,318)"/>
<path d="M0 0 C4.15154726 3.01165284 8.11549457 6.25827156 10.8125 10.6875 C10.8125 11.6775 10.8125 12.6675 10.8125 13.6875 C11.4725 13.6875 12.1325 13.6875 12.8125 13.6875 C15.93302034 18.69606627 17.79341191 23.18808702 19.0625 28.9375 C19.22943359 29.68765381 19.39636719 30.43780762 19.56835938 31.21069336 C22.42651722 44.76798596 20.83883264 58.81924872 13.4375 70.75 C12.25877227 72.41716458 11.0527752 74.06560166 9.8125 75.6875 C9.33941406 76.34105469 8.86632812 76.99460937 8.37890625 77.66796875 C1.05015952 87.0728477 -9.0518374 91.29350712 -20.1875 94.6875 C-20.83460938 94.89246094 -21.48171875 95.09742188 -22.1484375 95.30859375 C-36.51516351 97.97827272 -51.47536068 93.96906108 -63.609375 86.12109375 C-64.13015625 85.64800781 -64.6509375 85.17492187 -65.1875 84.6875 C-65.1875 84.0275 -65.1875 83.3675 -65.1875 82.6875 C-65.80625 82.44 -66.425 82.1925 -67.0625 81.9375 C-69.57460296 80.45979238 -69.94857344 79.24794823 -71.1875 76.6875 C-72.1775 76.3575 -73.1675 76.0275 -74.1875 75.6875 C-81.82393253 66.26923321 -84.39357329 54.96538884 -84.5 43.1875 C-84.52900391 42.14851563 -84.55800781 41.10953125 -84.58789062 40.0390625 C-84.69766185 26.494982 -79.21293129 14.66586744 -69.875 4.9375 C-68.33616643 3.49516095 -66.77443701 2.07673779 -65.1875 0.6875 C-64.54554688 0.1203125 -63.90359375 -0.446875 -63.2421875 -1.03125 C-44.79968123 -15.20666659 -18.37670321 -12.22378919 0 0 Z " fill="#F7F2EF" transform="translate(802.1875,267.3125)"/>
</svg>
