<?xml version="1.0" encoding="UTF-8"?>
<svg version="1.1" xmlns="http://www.w3.org/2000/svg" width="2006" height="2006">
<path d="M0 0 C46.56605678 -0.36628578 93.13196099 -0.64818576 139.69917457 -0.81704527 C145.19780819 -0.83705639 150.69643897 -0.85776556 156.19506836 -0.87890625 C157.28973857 -0.88310322 158.38440877 -0.88730018 159.5122508 -0.89162433 C177.23324322 -0.96123107 194.9534045 -1.08737459 212.67390398 -1.23444474 C230.85919479 -1.3841127 249.04405058 -1.47294904 267.22993201 -1.50541592 C278.45062734 -1.52736245 289.66897359 -1.59664725 300.88894566 -1.72666347 C308.58482361 -1.81129551 316.2794888 -1.83679081 323.97579823 -1.81602204 C328.41613054 -1.8057791 332.85236248 -1.82137143 337.29196358 -1.9072876 C365.32607361 -2.42317016 365.32607361 -2.42317016 371.39905357 3.40945435 C373.96544981 6.65801716 375.62642648 10.04009603 377.09414136 13.89325619 C378.66141273 17.53823909 381.03871393 20.62708489 383.375 23.8125 C387.98099934 30.50939031 392.57115353 37.21705764 397.15917969 43.92626953 C402.42615184 51.62667659 407.71119245 59.31458053 413 67 C419.39969408 76.29970186 425.7868389 85.60779944 432.15917969 94.92626953 C437.42615184 102.62667659 442.71119245 110.31458053 448 118 C454.39969408 127.29970186 460.7868389 136.60779944 467.15917969 145.92626953 C472.42615184 153.62667659 477.71119245 161.31458053 483 169 C489.39969408 178.29970186 495.7868389 187.60779944 502.15917969 196.92626953 C506.98034499 203.97489904 511.81630573 211.013269 516.65722656 218.04833984 C518.93908519 221.36491764 521.21945755 224.6825171 523.5 228 C524.41665976 229.33333808 525.33332642 230.66667142 526.25 232 C528.08333333 234.66666667 529.91666667 237.33333333 531.75 240 C532.4303833 240.98963745 532.4303833 240.98963745 533.12451172 241.99926758 C534.04283361 243.33502333 534.9611278 244.67079812 535.87939453 246.0065918 C538.14551157 249.30301745 540.41208059 252.59913027 542.6796875 255.89453125 C548.18518464 263.89670733 553.67634388 271.90854995 559.15917969 279.92626953 C563.98034499 286.97489904 568.81630573 294.013269 573.65722656 301.04833984 C575.93908519 304.36491764 578.21945755 307.6825171 580.5 311 C581.41665976 312.33333808 582.33332642 313.66667142 583.25 315 C588.75 323 594.25 331 599.75 339 C600.20358887 339.6597583 600.65717773 340.3195166 601.12451172 340.99926758 C602.04283361 342.33502333 602.9611278 343.67079812 603.87939453 345.0065918 C606.14551157 348.30301745 608.41208059 351.59913027 610.6796875 354.89453125 C611.57816116 356.20049596 612.47659838 357.50648573 613.375 358.8125 C613.82721924 359.46984131 614.27943848 360.12718262 614.74536133 360.80444336 C617.17592868 364.3396202 619.60126205 367.8782726 622.01953125 371.421875 C627.93006646 380.08132497 633.8778302 388.71277116 639.875 397.3125 C645.74751805 405.7340125 651.55635396 414.19602421 657.32641602 422.68798828 C663.98770704 432.47813441 670.76072077 442.1901138 677.54223633 451.8972168 C678.71284779 453.58579099 679.86028155 455.29042232 681 457 C685.45387279 455.60224205 687.69171623 453.54554541 690.75 450.0625 C691.62140625 449.07378906 692.4928125 448.08507812 693.390625 447.06640625 C696.57398389 443.354441 699.64834692 439.55557001 702.71875 435.75 C705.86076412 431.96236654 709.19915181 428.37005729 712.53125 424.75 C714.94378104 422.06262366 717.2325621 419.31034556 719.5 416.5 C723.33719031 411.74404581 727.39385101 407.24495199 731.53125 402.75 C733.94378104 400.06262366 736.2325621 397.31034556 738.5 394.5 C741.55348679 390.71539666 744.70668301 387.07792463 748 383.5 C752.11378909 379.0301488 755.97087297 374.40955107 759.78515625 369.68359375 C761.95632827 367.05291443 764.20241357 364.52057576 766.5 362 C769.52282421 358.68010514 772.42512161 355.30235888 775.25 351.8125 C779.92425377 346.04081274 784.78298493 340.44341265 789.66015625 334.84375 C792.88054565 331.14512201 796.06712644 327.41840447 799.25 323.6875 C802.67426605 319.67640744 806.13727275 315.71344294 809.6875 311.8125 C813.53851005 307.57291957 817.14843955 303.17067888 820.75 298.71875 C823.64357889 295.22234218 826.69349183 291.88491868 829.75 288.53125 C832.07862053 285.9115519 834.29562947 283.2248469 836.5 280.5 C840.11149134 276.03579543 843.88660694 271.76997886 847.75390625 267.52734375 C850.06187598 264.93037607 852.25555863 262.26595987 854.4375 259.5625 C858.29708603 254.79003797 862.37199991 250.26890891 866.52734375 245.75390625 C869.74709519 242.16792716 872.75905176 238.43298508 875.78515625 234.68359375 C878.66480887 231.19449084 881.70693876 227.87003079 884.75390625 224.52734375 C887.06187598 221.93037607 889.25555863 219.26595987 891.4375 216.5625 C895.29708603 211.79003797 899.37199991 207.26890891 903.52734375 202.75390625 C906.74709519 199.16792716 909.75905176 195.43298508 912.78515625 191.68359375 C915.66480887 188.19449084 918.70693876 184.87003079 921.75390625 181.52734375 C924.06187598 178.93037607 926.25555863 176.26595987 928.4375 173.5625 C932.29708603 168.79003797 936.37199991 164.26890891 940.52734375 159.75390625 C943.74709519 156.16792716 946.75905176 152.43298508 949.78515625 148.68359375 C951.95632827 146.05291443 954.20241357 143.52057576 956.5 141 C959.61458668 137.58260628 962.5918662 134.0947765 965.5 130.5 C969.11149134 126.03579543 972.88660694 121.76997886 976.75390625 117.52734375 C979.06187598 114.93037607 981.25555863 112.26595987 983.4375 109.5625 C987.29708603 104.79003797 991.37199991 100.26890891 995.52734375 95.75390625 C998.74709519 92.16792716 1001.75905176 88.43298508 1004.78515625 84.68359375 C1006.95632827 82.05291443 1009.20241357 79.52057576 1011.5 77 C1014.61458668 73.58260628 1017.5918662 70.0947765 1020.5 66.5 C1024.11149134 62.03579543 1027.88660694 57.76997886 1031.75390625 53.52734375 C1034.06187598 50.93037607 1036.25555863 48.26595987 1038.4375 45.5625 C1042.29708603 40.79003797 1046.37199991 36.26890891 1050.52734375 31.75390625 C1053.74394094 28.17144018 1056.75284978 24.43992408 1059.77734375 20.6953125 C1062.63690943 17.22764937 1065.63187628 13.89884798 1068.6640625 10.58203125 C1070.93388026 8.17410358 1070.93388026 8.17410358 1072.40125751 6.03033543 C1076.60800559 0.4479433 1076.60800559 0.4479433 1080.27066612 -0.73069954 C1082.93959523 -0.98956546 1085.50583996 -1.00230154 1088.1862793 -0.92407227 C1089.18549408 -0.92684677 1090.18470886 -0.92962128 1091.21420288 -0.93247986 C1094.50227732 -0.93200657 1097.78670411 -0.87474345 1101.07421875 -0.81640625 C1103.36390134 -0.80401399 1105.65360466 -0.79502534 1107.9433136 -0.78929138 C1113.96103509 -0.76446295 1119.97722572 -0.69074414 1125.99438477 -0.60760498 C1130.91137957 -0.54755244 1135.82828048 -0.52110539 1140.74556255 -0.49662876 C1150.8979327 -0.44598941 1161.05025628 -0.37321509 1171.2019043 -0.24047852 C1172.13965195 -0.23150543 1173.0773996 -0.22253235 1174.04356384 -0.21328735 C1174.90560425 -0.20035141 1175.76764465 -0.18741547 1176.6558075 -0.17408752 C1177.77597527 -0.15988439 1177.77597527 -0.15988439 1178.9187727 -0.14539433 C1181.04853883 0.00339092 1182.94921152 0.41967736 1185 1 C1183.58079997 5.46034294 1181.13383273 8.32847558 1177.9375 11.625 C1173.45730997 16.36985502 1169.27422024 21.26618198 1165.1796875 26.3515625 C1163.02242601 28.97275119 1160.78689 31.49154281 1158.5 34 C1155.38541332 37.41739372 1152.4081338 40.9052235 1149.5 44.5 C1145.88967558 48.96276213 1142.11572071 53.22719533 1138.25 57.46875 C1135.92137947 60.0884481 1133.70437053 62.7751531 1131.5 65.5 C1127.88850866 69.96420457 1124.11339306 74.23002114 1120.24609375 78.47265625 C1117.93812402 81.06962393 1115.74444137 83.73404013 1113.5625 86.4375 C1109.70291397 91.20996203 1105.62800009 95.73109109 1101.47265625 100.24609375 C1098.25290481 103.83207284 1095.24094824 107.56701492 1092.21484375 111.31640625 C1090.04367173 113.94708557 1087.79758643 116.47942424 1085.5 119 C1082.38541332 122.41739372 1079.4081338 125.9052235 1076.5 129.5 C1072.88850866 133.96420457 1069.11339306 138.23002114 1065.24609375 142.47265625 C1062.93812402 145.06962393 1060.74444137 147.73404013 1058.5625 150.4375 C1054.70291397 155.20996203 1050.62800009 159.73109109 1046.47265625 164.24609375 C1043.25290481 167.83207284 1040.24094824 171.56701492 1037.21484375 175.31640625 C1034.33519113 178.80550916 1031.29306124 182.12996921 1028.24609375 185.47265625 C1025.93812402 188.06962393 1023.74444137 190.73404013 1021.5625 193.4375 C1017.70291397 198.20996203 1013.62800009 202.73109109 1009.47265625 207.24609375 C1006.25290481 210.83207284 1003.24094824 214.56701492 1000.21484375 218.31640625 C997.33519113 221.80550916 994.29306124 225.12996921 991.24609375 228.47265625 C988.93812402 231.06962393 986.74444137 233.73404013 984.5625 236.4375 C980.70291397 241.20996203 976.62800009 245.73109109 972.47265625 250.24609375 C969.25290481 253.83207284 966.24094824 257.56701492 963.21484375 261.31640625 C961.04367173 263.94708557 958.79758643 266.47942424 956.5 269 C953.38541332 272.41739372 950.4081338 275.9052235 947.5 279.5 C943.88850866 283.96420457 940.11339306 288.23002114 936.24609375 292.47265625 C933.93812402 295.06962393 931.74444137 297.73404013 929.5625 300.4375 C925.70291397 305.20996203 921.62800009 309.73109109 917.47265625 314.24609375 C914.25290481 317.83207284 911.24094824 321.56701492 908.21484375 325.31640625 C906.04367173 327.94708557 903.79758643 330.47942424 901.5 333 C898.38541332 336.41739372 895.4081338 339.9052235 892.5 343.5 C888.88967558 347.96276213 885.11572071 352.22719533 881.25 356.46875 C878.92137947 359.0884481 876.70437053 361.7751531 874.5 364.5 C870.88967558 368.96276213 867.11572071 373.22719533 863.25 377.46875 C860.92137947 380.0884481 858.70437053 382.7751531 856.5 385.5 C852.88850866 389.96420457 849.11339306 394.23002114 845.24609375 398.47265625 C842.93812402 401.06962393 840.74444137 403.73404013 838.5625 406.4375 C834.70291397 411.20996203 830.62800009 415.73109109 826.47265625 420.24609375 C823.25290481 423.83207284 820.24094824 427.56701492 817.21484375 431.31640625 C815.04367173 433.94708557 812.79758643 436.47942424 810.5 439 C807.38541332 442.41739372 804.4081338 445.9052235 801.5 449.5 C797.88967558 453.96276213 794.11572071 458.22719533 790.25 462.46875 C787.92137947 465.0884481 785.70437053 467.7751531 783.5 470.5 C779.88967558 474.96276213 776.11572071 479.22719533 772.25 483.46875 C769.92137947 486.0884481 767.70437053 488.7751531 765.5 491.5 C762.5918662 495.0947765 759.61458668 498.58260628 756.5 502 C752.63010845 506.25218587 748.96921102 510.63773674 745.3515625 515.10546875 C742.73904705 518.3212062 740.09303071 521.50728591 737.4375 524.6875 C736.77439819 525.48196533 736.77439819 525.48196533 736.09790039 526.29248047 C735.06568718 527.52867134 734.03290913 528.76439054 733 530 C737.11357263 537.9174903 741.73640992 545.29352419 746.8125 552.625 C747.93870205 554.26604431 749.06489545 555.90709465 750.19058228 557.54849243 C751.35224982 559.24106793 752.51608917 560.93213445 753.68017578 562.62304688 C757.39461139 568.02367018 761.06914621 573.45146517 764.75 578.875 C771.29471694 588.50322103 777.8596132 598.11743667 784.43945312 607.72167969 C787.12790723 611.6466881 789.81379495 615.57345221 792.5 619.5 C793.58332167 621.08334131 794.66665499 622.66667466 795.75 624.25 C802.25000001 633.75000001 802.25000001 633.75000001 803.87548828 636.12573242 C804.95717066 637.70664032 806.03887634 639.28753229 807.12060547 640.8684082 C809.85439101 644.8637193 812.58775202 648.85931967 815.3203125 652.85546875 C822.19885343 662.91378906 829.09211118 672.96181602 836 683 C842.39969408 692.29970186 848.7868389 701.60779944 855.15917969 710.92626953 C859.98034499 717.97489904 864.81630573 725.013269 869.65722656 732.04833984 C871.93908519 735.36491764 874.21945755 738.6825171 876.5 742 C877.41665976 743.33333808 878.33332642 744.66667142 879.25 746 C881.08333333 748.66666667 882.91666667 751.33333333 884.75 754 C885.4303833 754.98963745 885.4303833 754.98963745 886.12451172 755.99926758 C887.04283361 757.33502333 887.9611278 758.67079812 888.87939453 760.0065918 C891.14551157 763.30301745 893.41208059 766.59913027 895.6796875 769.89453125 C901.18518464 777.89670733 906.67634388 785.90854995 912.15917969 793.92626953 C916.98034499 800.97489904 921.81630573 808.013269 926.65722656 815.04833984 C929.39931496 819.0338407 932.13939657 823.02072162 934.87988281 827.00732422 C937.14585064 830.30349641 939.41224691 833.59937197 941.6796875 836.89453125 C947.18518464 844.89670733 952.67634388 852.90854995 958.15917969 860.92626953 C962.98034499 867.97489904 967.81630573 875.013269 972.65722656 882.04833984 C975.39931496 886.0338407 978.13939657 890.02072162 980.87988281 894.00732422 C983.14585064 897.30349641 985.41224691 900.59937197 987.6796875 903.89453125 C993.18518464 911.89670733 998.67634388 919.90854995 1004.15917969 927.92626953 C1008.98034499 934.97489904 1013.81630573 942.013269 1018.65722656 949.04833984 C1021.39931496 953.0338407 1024.13939657 957.02072162 1026.87988281 961.00732422 C1029.14585064 964.30349641 1031.41224691 967.59937197 1033.6796875 970.89453125 C1039.18518464 978.89670733 1044.67634388 986.90854995 1050.15917969 994.92626953 C1054.98034499 1001.97489904 1059.81630573 1009.013269 1064.65722656 1016.04833984 C1066.93908519 1019.36491764 1069.21945755 1022.6825171 1071.5 1026 C1072.41665976 1027.33333808 1073.33332642 1028.66667142 1074.25 1030 C1076.08333333 1032.66666667 1077.91666667 1035.33333333 1079.75 1038 C1080.20358887 1038.6597583 1080.65717773 1039.3195166 1081.12451172 1039.99926758 C1082.04283361 1041.33502333 1082.9611278 1042.67079812 1083.87939453 1044.0065918 C1086.14551157 1047.30301745 1088.41208059 1050.59913027 1090.6796875 1053.89453125 C1096.18518464 1061.89670733 1101.67634388 1069.90854995 1107.15917969 1077.92626953 C1111.98034499 1084.97489904 1116.81630573 1092.013269 1121.65722656 1099.04833984 C1124.39931496 1103.0338407 1127.13939657 1107.02072162 1129.87988281 1111.00732422 C1132.14585064 1114.30349641 1134.41224691 1117.59937197 1136.6796875 1120.89453125 C1143.25002784 1130.44433344 1149.79980042 1140.00809039 1156.34277344 1149.57666016 C1159.06109401 1153.55162332 1161.78059969 1157.52577548 1164.5 1161.5 C1165.58333917 1163.08332934 1166.6666725 1164.66666268 1167.75 1166.25 C1168.28625 1167.03375 1168.8225 1167.8175 1169.375 1168.625 C1178.3125 1181.6875 1178.3125 1181.6875 1187.25 1194.75 C1187.7860083 1195.53334717 1188.3220166 1196.31669434 1188.87426758 1197.1237793 C1189.96022895 1198.71105397 1191.04600297 1200.29845684 1192.1315918 1201.88598633 C1194.79821374 1205.78507724 1197.46779062 1209.68206615 1200.14453125 1213.57421875 C1208.88813392 1226.30016322 1217.46021246 1239.13664569 1226 1252 C1222.32065819 1254.45289454 1219.4804513 1254.34190824 1215.21629333 1254.39950562 C1214.40138322 1254.41777539 1213.5864731 1254.43604516 1212.74686873 1254.45486856 C1209.9595188 1254.51357468 1207.17216565 1254.55679011 1204.38452148 1254.59912109 C1202.34267273 1254.63632192 1200.30082784 1254.67373544 1198.25898647 1254.71133995 C1148.9729556 1255.56207879 1099.66373959 1255.45629251 1050.37194157 1255.54844093 C1046.69188983 1255.55544494 1043.01183836 1255.56257295 1039.33178711 1255.56982422 C1037.96049549 1255.57251716 1037.96049549 1255.57251716 1036.56150102 1255.5752645 C1021.63453705 1255.60556547 1006.70791583 1255.67062299 991.78113265 1255.74851067 C976.36515096 1255.82827699 960.94934909 1255.87410143 945.53316492 1255.88746679 C936.91210732 1255.89585685 928.29167339 1255.91947057 919.67082405 1255.98213577 C912.36484689 1256.03523525 905.05958306 1256.05812535 897.75341833 1256.04102559 C894.03122274 1256.03327246 890.31056386 1256.04012325 886.58861351 1256.08630753 C882.55498737 1256.13597234 878.52470107 1256.11590062 874.49085999 1256.08901978 C873.31697867 1256.11455323 872.14309735 1256.14008668 870.93364388 1256.16639388 C863.18031035 1256.03367159 863.18031035 1256.03367159 859.751459 1253.03081203 C857.96271803 1250.76193722 856.45505528 1248.49267228 855 1246 C854.29496338 1244.99340332 853.58992676 1243.98680664 852.86352539 1242.94970703 C852.28078857 1242.06138184 851.69805176 1241.17305664 851.09765625 1240.2578125 C850.10282227 1238.75154297 850.10282227 1238.75154297 849.08789062 1237.21484375 C848.41951172 1236.19519531 847.75113281 1235.17554688 847.0625 1234.125 C842.52996083 1227.22287925 837.90525919 1220.43671567 833.01586914 1213.78222656 C829.45772545 1208.87141083 826.08128613 1203.83762894 822.6875 1198.8125 C821.1895989 1196.60102216 819.69041206 1194.39041663 818.19140625 1192.1796875 C817.47227051 1191.1184668 816.75313477 1190.05724609 816.01220703 1188.96386719 C813.39715467 1185.11204291 810.76584284 1181.271674 808.125 1177.4375 C807.69469482 1176.81270752 807.26438965 1176.18791504 806.82104492 1175.54418945 C805.97365001 1174.31432911 805.12607823 1173.08459061 804.27832031 1171.85498047 C802.01593353 1168.57201356 799.75828515 1165.28578902 797.5 1162 C794.77417993 1158.03464507 792.04802676 1154.06952099 789.3203125 1150.10546875 C783.81481536 1142.10329267 778.32365612 1134.09145005 772.84082031 1126.07373047 C768.01965501 1119.02510096 763.18369427 1111.986731 758.34277344 1104.95166016 C755.60068504 1100.9661593 752.86060343 1096.97927838 750.12011719 1092.99267578 C747.85414936 1089.69650359 745.58775309 1086.40062803 743.3203125 1083.10546875 C737.81481536 1075.10329267 732.32365612 1067.09145005 726.84082031 1059.07373047 C722.01965501 1052.02510096 717.18369427 1044.986731 712.34277344 1037.95166016 C710.06091481 1034.63508236 707.78054245 1031.3174829 705.5 1028 C704.58334024 1026.66666192 703.66667358 1025.33332858 702.75 1024 C675.25 984 675.25 984 673.8762207 982.00170898 C672.95556784 980.66262209 672.03483159 979.32359253 671.11401367 977.98461914 C668.88266308 974.73976998 666.65256052 971.49408198 664.42578125 968.24609375 C659.06622751 960.43293873 653.66831807 952.64752861 648.25 944.875 C641.59268788 935.32182831 635.01338386 925.71779831 628.46484375 916.08984375 C624.09659201 909.66763788 619.69447286 903.26896454 615.28857422 896.87255859 C614.00426266 895.0061945 612.72244649 893.13814195 611.44140625 891.26953125 C606.07709372 883.44825098 600.67374126 875.65519617 595.25 867.875 C589.33017788 859.38122046 583.47368678 850.84699626 577.65429688 842.28417969 C572.39047289 834.54895989 567.0550737 826.86495359 561.70361328 819.19018555 C557.90705959 813.74467537 554.12696555 808.28881485 550.375 802.8125 C546.13187893 796.62647187 541.85587961 790.46375216 537.5625 784.3125 C536.97065918 783.46212158 536.37881836 782.61174316 535.76904297 781.7355957 C532.96075863 777.71967662 530.129941 773.7759239 527 770 C521.69430154 775.04547347 516.99796711 780.3708637 512.41796875 786.078125 C509.87401677 789.15223822 507.2187651 792.08167953 504.5 795 C500.18972722 799.63218017 496.14936526 804.42125097 492.1796875 809.3515625 C490.02242601 811.97275119 487.78689 814.49154281 485.5 817 C482.40444804 820.39598682 479.44848793 823.86171531 476.5625 827.4375 C472.70291397 832.20996203 468.62800009 836.73109109 464.47265625 841.24609375 C461.25290481 844.83207284 458.24094824 848.56701492 455.21484375 852.31640625 C452.33519113 855.80550916 449.29306124 859.12996921 446.24609375 862.47265625 C443.93812402 865.06962393 441.74444137 867.73404013 439.5625 870.4375 C435.70291397 875.20996203 431.62800009 879.73109109 427.47265625 884.24609375 C424.25290481 887.83207284 421.24094824 891.56701492 418.21484375 895.31640625 C415.33519113 898.80550916 412.29306124 902.12996921 409.24609375 905.47265625 C406.93812402 908.06962393 404.74444137 910.73404013 402.5625 913.4375 C398.70174863 918.211403 394.62562925 922.73388428 390.46875 927.25 C388.05621896 929.93737634 385.7674379 932.68965444 383.5 935.5 C380.44651321 939.28460334 377.29331699 942.92207537 374 946.5 C369.88621091 950.9698512 366.02912703 955.59044893 362.21484375 960.31640625 C360.04367173 962.94708557 357.79758643 965.47942424 355.5 968 C352.38541332 971.41739372 349.4081338 974.9052235 346.5 978.5 C342.88967558 982.96276213 339.11572071 987.22719533 335.25 991.46875 C332.92137947 994.0884481 330.70437053 996.7751531 328.5 999.5 C324.88967558 1003.96276213 321.11572071 1008.22719533 317.25 1012.46875 C314.92137947 1015.0884481 312.70437053 1017.7751531 310.5 1020.5 C306.88850866 1024.96420457 303.11339306 1029.23002114 299.24609375 1033.47265625 C296.93812402 1036.06962393 294.74444137 1038.73404013 292.5625 1041.4375 C288.70291397 1046.20996203 284.62800009 1050.73109109 280.47265625 1055.24609375 C277.25290481 1058.83207284 274.24094824 1062.56701492 271.21484375 1066.31640625 C268.33519113 1069.80550916 265.29306124 1073.12996921 262.24609375 1076.47265625 C259.93812402 1079.06962393 257.74444137 1081.73404013 255.5625 1084.4375 C251.70291397 1089.20996203 247.62800009 1093.73109109 243.47265625 1098.24609375 C240.25290481 1101.83207284 237.24094824 1105.56701492 234.21484375 1109.31640625 C231.33519113 1112.80550916 228.29306124 1116.12996921 225.24609375 1119.47265625 C222.93812402 1122.06962393 220.74444137 1124.73404013 218.5625 1127.4375 C214.70291397 1132.20996203 210.62800009 1136.73109109 206.47265625 1141.24609375 C203.25290481 1144.83207284 200.24094824 1148.56701492 197.21484375 1152.31640625 C194.33519113 1155.80550916 191.29306124 1159.12996921 188.24609375 1162.47265625 C185.93812402 1165.06962393 183.74444137 1167.73404013 181.5625 1170.4375 C177.70291397 1175.20996203 173.62800009 1179.73109109 169.47265625 1184.24609375 C166.25290481 1187.83207284 163.24094824 1191.56701492 160.21484375 1195.31640625 C158.04367173 1197.94708557 155.79758643 1200.47942424 153.5 1203 C150.38541332 1206.41739372 147.4081338 1209.9052235 144.5 1213.5 C140.88967558 1217.96276213 137.11572071 1222.22719533 133.25 1226.46875 C130.13741495 1229.97040818 127.21520003 1233.61570714 124.26953125 1237.2578125 C121.30194635 1240.84343143 118.19014815 1244.28286231 115.04296875 1247.7109375 C112.92849834 1249.94541775 112.92849834 1249.94541775 111.39346313 1252.6065979 C108.5980769 1255.40191286 106.93506462 1255.58888579 103.05421448 1255.63320923 C101.86988075 1255.60860123 101.86988075 1255.60860123 100.66162109 1255.58349609 C99.82188248 1255.58583252 98.98214386 1255.58816895 98.11695862 1255.59057617 C95.33515561 1255.59219296 92.55500643 1255.55809648 89.7734375 1255.5234375 C87.82687985 1255.51664076 85.88031393 1255.51192298 83.93374634 1255.50918579 C78.79469306 1255.49575463 73.65632763 1255.45148236 68.51751709 1255.40161133 C64.37289202 1255.36651399 60.22834029 1255.35317821 56.08359337 1255.34119225 C51.0843329 1255.32622627 46.08514183 1255.30114908 41.0859375 1255.2734375 C40.15447277 1255.26852673 39.22300804 1255.26361595 38.26331711 1255.25855637 C26.14625042 1255.18380157 14.0918869 1254.79120908 2 1254 C3.52634078 1249.96023137 5.27881774 1247.13622644 8.0625 1243.8125 C8.86816406 1242.84957031 9.67382812 1241.88664062 10.50390625 1240.89453125 C13.52898288 1237.38657853 16.62994174 1233.95464726 19.75 1230.53125 C22.07862053 1227.9115519 24.29562947 1225.2248469 26.5 1222.5 C30.11149134 1218.03579543 33.88660694 1213.76997886 37.75390625 1209.52734375 C40.06187598 1206.93037607 42.25555863 1204.26595987 44.4375 1201.5625 C48.29825137 1196.788597 52.37437075 1192.26611572 56.53125 1187.75 C58.94378104 1185.06262366 61.2325621 1182.31034556 63.5 1179.5 C66.55348679 1175.71539666 69.70668301 1172.07792463 73 1168.5 C77.11378909 1164.0301488 80.97087297 1159.40955107 84.78515625 1154.68359375 C86.95632827 1152.05291443 89.20241357 1149.52057576 91.5 1147 C94.61458668 1143.58260628 97.5918662 1140.0947765 100.5 1136.5 C104.11149134 1132.03579543 107.88660694 1127.76997886 111.75390625 1123.52734375 C114.06187598 1120.93037607 116.25555863 1118.26595987 118.4375 1115.5625 C122.29708603 1110.79003797 126.37199991 1106.26890891 130.52734375 1101.75390625 C133.74709519 1098.16792716 136.75905176 1094.43298508 139.78515625 1090.68359375 C141.95632827 1088.05291443 144.20241357 1085.52057576 146.5 1083 C149.61458668 1079.58260628 152.5918662 1076.0947765 155.5 1072.5 C159.11149134 1068.03579543 162.88660694 1063.76997886 166.75390625 1059.52734375 C169.06187598 1056.93037607 171.25555863 1054.26595987 173.4375 1051.5625 C177.29708603 1046.79003797 181.37199991 1042.26890891 185.52734375 1037.75390625 C188.74709519 1034.16792716 191.75905176 1030.43298508 194.78515625 1026.68359375 C196.95632827 1024.05291443 199.20241357 1021.52057576 201.5 1019 C204.61458668 1015.58260628 207.5918662 1012.0947765 210.5 1008.5 C214.11149134 1004.03579543 217.88660694 999.76997886 221.75390625 995.52734375 C224.06187598 992.93037607 226.25555863 990.26595987 228.4375 987.5625 C232.29708603 982.79003797 236.37199991 978.26890891 240.52734375 973.75390625 C243.74709519 970.16792716 246.75905176 966.43298508 249.78515625 962.68359375 C252.66480887 959.19449084 255.70693876 955.87003079 258.75390625 952.52734375 C261.06187598 949.93037607 263.25555863 947.26595987 265.4375 944.5625 C269.29708603 939.79003797 273.37199991 935.26890891 277.52734375 930.75390625 C280.74709519 927.16792716 283.75905176 923.43298508 286.78515625 919.68359375 C289.66480887 916.19449084 292.70693876 912.87003079 295.75390625 909.52734375 C298.06187598 906.93037607 300.25555863 904.26595987 302.4375 901.5625 C306.29708603 896.79003797 310.37199991 892.26890891 314.52734375 887.75390625 C317.74709519 884.16792716 320.75905176 880.43298508 323.78515625 876.68359375 C326.66480887 873.19449084 329.70693876 869.87003079 332.75390625 866.52734375 C335.06187598 863.93037607 337.25555863 861.26595987 339.4375 858.5625 C343.29708603 853.79003797 347.37199991 849.26890891 351.52734375 844.75390625 C354.74709519 841.16792716 357.75905176 837.43298508 360.78515625 833.68359375 C362.95632827 831.05291443 365.20241357 828.52057576 367.5 826 C370.61458668 822.58260628 373.5918662 819.0947765 376.5 815.5 C380.11149134 811.03579543 383.88660694 806.76997886 387.75390625 802.52734375 C390.06187598 799.93037607 392.25555863 797.26595987 394.4375 794.5625 C398.29708603 789.79003797 402.37199991 785.26890891 406.52734375 780.75390625 C409.74709519 777.16792716 412.75905176 773.43298508 415.78515625 769.68359375 C418.66480887 766.19449084 421.70693876 762.87003079 424.75390625 759.52734375 C427.06187598 756.93037607 429.25555863 754.26595987 431.4375 751.5625 C435.29825137 746.788597 439.37437075 742.26611572 443.53125 737.75 C445.94378104 735.06262366 448.2325621 732.31034556 450.5 729.5 C453.55348679 725.71539666 456.70668301 722.07792463 460 718.5 C464.893922 713.17852787 469.50990271 707.66541928 474 702 C474.62003906 701.33871094 475.24007813 700.67742188 475.87890625 699.99609375 C476.24886719 699.33738281 476.61882812 698.67867187 477 698 C475.87710861 694.50603555 474.24059832 691.61783458 472.19921875 688.5859375 C471.64097412 687.75239746 471.08272949 686.91885742 470.50756836 686.06005859 C469.9069458 685.17398926 469.30632324 684.28791992 468.6875 683.375 C468.06302979 682.4463916 467.43855957 681.5177832 466.79516602 680.56103516 C461.11452748 672.12855747 455.37621805 663.73536308 449.61767578 655.35595703 C447.41574314 652.1490977 445.22047097 648.93770353 443.02514648 645.72631836 C437.14510926 637.12505663 431.24903098 628.53493217 425.34277344 619.95166016 C422.60068504 615.9661593 419.86060343 611.97927838 417.12011719 607.99267578 C414.85414936 604.69650359 412.58775309 601.40062803 410.3203125 598.10546875 C404.81481536 590.10329267 399.32365612 582.09145005 393.84082031 574.07373047 C389.01965501 567.02510096 384.18369427 559.986731 379.34277344 552.95166016 C376.60068504 548.9661593 373.86060343 544.97927838 371.12011719 540.99267578 C368.85414936 537.69650359 366.58775309 534.40062803 364.3203125 531.10546875 C358.81481536 523.10329267 353.32365612 515.09145005 347.84082031 507.07373047 C343.01965501 500.02510096 338.18369427 492.986731 333.34277344 485.95166016 C330.60068504 481.9661593 327.86060343 477.97927838 325.12011719 473.99267578 C322.85414936 470.69650359 320.58775309 467.40062803 318.3203125 464.10546875 C312.81481536 456.10329267 307.32365612 448.09145005 301.84082031 440.07373047 C297.01965501 433.02510096 292.18369427 425.986731 287.34277344 418.95166016 C285.06091481 415.63508236 282.78054245 412.3174829 280.5 409 C279.58334024 407.66666192 278.66667358 406.33332858 277.75 405 C275.91666667 402.33333333 274.08333333 399.66666667 272.25 397 C271.79641113 396.3402417 271.34282227 395.6804834 270.87548828 395.00073242 C269.95716639 393.66497667 269.0388722 392.32920188 268.12060547 390.9934082 C265.85448843 387.69698255 263.58791941 384.40086973 261.3203125 381.10546875 C255.81481536 373.10329267 250.32365612 365.09145005 244.84082031 357.07373047 C240.01965501 350.02510096 235.18369427 342.986731 230.34277344 335.95166016 C228.06091481 332.63508236 225.78054245 329.3174829 223.5 326 C222.58334024 324.66666192 221.66667358 323.33332858 220.75 322 C215.25 314 209.75 306 204.25 298 C203.79641113 297.3402417 203.34282227 296.6804834 202.87548828 296.00073242 C201.95716639 294.66497667 201.0388722 293.32920188 200.12060547 291.9934082 C197.85448843 288.69698255 195.58791941 285.40086973 193.3203125 282.10546875 C187.81481536 274.10329267 182.32365612 266.09145005 176.84082031 258.07373047 C172.01965501 251.02510096 167.18369427 243.986731 162.34277344 236.95166016 C160.06091481 233.63508236 157.78054245 230.3174829 155.5 227 C154.58334024 225.66666192 153.66667358 224.33332858 152.75 223 C139.91666667 204.33333333 127.08333333 185.66666667 114.25 167 C113.79641113 166.3402417 113.34282227 165.6804834 112.87548828 165.00073242 C111.95716639 163.66497667 111.0388722 162.32920188 110.12060547 160.9934082 C107.85448843 157.69698255 105.58791941 154.40086973 103.3203125 151.10546875 C102.42183884 149.79950404 101.52340162 148.49351427 100.625 147.1875 C99.94667114 146.20148804 99.94667114 146.20148804 99.25463867 145.19555664 C96.82407132 141.6603798 94.39873795 138.1217274 91.98046875 134.578125 C90.92455081 133.0312011 89.86855964 131.48432718 88.8125 129.9375 C88.27423584 129.14907715 87.73597168 128.3606543 87.18139648 127.54833984 C83.55068638 122.24024697 79.88266697 116.95947232 76.19799805 111.6887207 C69.18680374 101.65849847 62.30742537 91.55369428 55.57885742 81.33129883 C51.84825664 75.68422981 47.97756535 70.17522526 43.97314453 64.71923828 C40.77910411 60.31745379 37.73536176 55.81616588 34.6875 51.3125 C33.37394153 49.37874075 32.06013783 47.44514805 30.74609375 45.51171875 C30.10913574 44.57376465 29.47217773 43.63581055 28.81591797 42.66943359 C26.30591816 38.97968663 23.78049199 35.30071191 21.25 31.625 C20.59946655 30.67911011 20.59946655 30.67911011 19.93579102 29.71411133 C17.64664178 26.38697425 15.35254252 23.06331784 13.0546875 19.7421875 C12.56452148 19.03239746 12.07435547 18.32260742 11.56933594 17.59130859 C10.64439948 16.25205814 9.71809389 14.91375158 8.79003906 13.57666016 C6.56420028 10.35148248 4.41306024 7.09547257 2.34326172 3.76757812 C1.90182831 3.05863403 1.4603949 2.34968994 1.00558472 1.6192627 C0.67374176 1.08490601 0.3418988 0.55054932 0 0 Z M149 82 C150.10850642 83.7509273 151.21819217 85.501108 152.32836914 87.25097656 C152.94619766 88.22568909 153.56402618 89.20040161 154.20057678 90.20465088 C156.51227237 93.79579951 158.94833865 97.28070364 161.4375 100.75 C162.48123521 102.21690286 163.52415905 103.68438327 164.56640625 105.15234375 C165.11828613 105.9294873 165.67016602 106.70663086 166.23876953 107.50732422 C169.47719164 112.09067461 172.67424808 116.70280281 175.875 121.3125 C180.90345371 128.55099457 185.94135713 135.78256862 191 143 C196.69859375 151.13143616 202.37188417 159.28023949 208.0390625 167.43359375 C212.34781229 173.63054085 216.66837304 179.81902545 221 186 C226.01508431 193.15622761 231.01247701 200.32453729 236 207.5 C243.3102319 218.01624313 250.64949568 228.51188041 258 239 C266.03231509 250.46096617 274.04582061 261.93461424 282.03417969 273.42626953 C288.09800618 282.14686679 294.18658311 290.84996444 300.28222656 299.54833984 C303.77500481 304.53334256 307.2646291 309.52055381 310.75488281 314.50732422 C313.64548192 318.63709659 316.53676689 322.7663847 319.4296875 326.89453125 C326.31728062 336.72500507 333.18294378 346.57042296 340.03417969 356.42626953 C346.66767434 365.96612614 353.33130803 375.48472922 360 385 C368.03231509 396.46096617 376.04582061 407.93461424 384.03417969 419.42626953 C390.09800618 428.14686679 396.18658311 436.84996444 402.28222656 445.54833984 C405.77500481 450.53334256 409.2646291 455.52055381 412.75488281 460.50732422 C415.64548192 464.63709659 418.53676689 468.7663847 421.4296875 472.89453125 C428.31728062 482.72500507 435.18294378 492.57042296 442.03417969 502.42626953 C448.09800618 511.14686679 454.18658311 519.84996444 460.28222656 528.54833984 C463.77500481 533.53334256 467.2646291 538.52055381 470.75488281 543.50732422 C473.64548192 547.63709659 476.53676689 551.7663847 479.4296875 555.89453125 C486.31728062 565.72500507 493.18294378 575.57042296 500.03417969 585.42626953 C506.66767434 594.96612614 513.33130803 604.48472922 520 614 C528.03231509 625.46096617 536.04582061 636.93461424 544.03417969 648.42626953 C550.09800618 657.14686679 556.18658311 665.84996444 562.28222656 674.54833984 C565.77500481 679.53334256 569.2646291 684.52055381 572.75488281 689.50732422 C575.64548192 693.63709659 578.53676689 697.7663847 581.4296875 701.89453125 C588.31728062 711.72500507 595.18294378 721.57042296 602.03417969 731.42626953 C608.09800618 740.14686679 614.18658311 748.84996444 620.28222656 757.54833984 C623.77500481 762.53334256 627.2646291 767.52055381 630.75488281 772.50732422 C633.64548192 776.63709659 636.53676689 780.7663847 639.4296875 784.89453125 C646.31728062 794.72500507 653.18294378 804.57042296 660.03417969 814.42626953 C666.66767434 823.96612614 673.33130803 833.48472922 680 843 C688.03231509 854.46096617 696.04582061 865.93461424 704.03417969 877.42626953 C710.09800618 886.14686679 716.18658311 894.84996444 722.28222656 903.54833984 C725.77500481 908.53334256 729.2646291 913.52055381 732.75488281 918.50732422 C735.64548192 922.63709659 738.53676689 926.7663847 741.4296875 930.89453125 C748.31728062 940.72500507 755.18294378 950.57042296 762.03417969 960.42626953 C768.09800618 969.14686679 774.18658311 977.84996444 780.28222656 986.54833984 C783.1896209 990.69786428 786.09468001 994.84902306 789 999 C790.16665575 1000.66667431 791.33332241 1002.33334098 792.5 1004 C799.5 1014 806.5 1024 813.5 1034 C814.07733887 1034.8247583 814.65467773 1035.6495166 815.24951172 1036.49926758 C816.41784967 1038.16834507 817.58614384 1039.83745322 818.75439453 1041.5065918 C821.64513489 1045.63662338 824.53659854 1049.76614446 827.4296875 1053.89453125 C834.31728062 1063.72500507 841.18294378 1073.57042296 848.03417969 1083.42626953 C854.09499321 1092.14253374 860.18070379 1100.84118692 866.2734375 1109.53515625 C868.0377002 1112.05382087 869.80033226 1114.57361928 871.5625 1117.09375 C878.03616412 1126.35094804 884.52517272 1135.59688694 891.046875 1144.8203125 C893.10328631 1147.72874429 895.15472435 1150.64060846 897.203125 1153.5546875 C897.73405762 1154.30919189 898.26499023 1155.06369629 898.81201172 1155.84106445 C899.81459519 1157.26601088 900.81630152 1158.6915751 901.81689453 1160.11791992 C902.73826698 1161.42639788 903.66865576 1162.72857816 904.60839844 1164.02392578 C905.57516149 1165.39672931 906.49233087 1166.80526494 907.36816406 1168.23779297 C907.83706055 1168.96240723 908.30595703 1169.68702148 908.7890625 1170.43359375 C909.1907666 1171.09286865 909.5924707 1171.75214355 910.00634766 1172.43139648 C915.89015005 1177.06076586 928.17027206 1175.14030993 935.28125 1175.12939453 C936.70638066 1175.13075191 938.13151097 1175.13253373 939.55664062 1175.13470459 C943.40370555 1175.13923891 947.25074347 1175.1375059 951.09780884 1175.1343255 C955.13747222 1175.13178115 959.1771334 1175.1341452 963.21679688 1175.13571167 C969.99870211 1175.13752732 976.78059643 1175.13514292 983.5625 1175.13037109 C991.38609441 1175.12492964 999.20966275 1175.12669272 1007.03325653 1175.1321975 C1013.76898165 1175.13674586 1020.50469895 1175.13737075 1027.24042511 1175.13475883 C1031.25525845 1175.13320553 1035.27007957 1175.13297622 1039.28491211 1175.13629532 C1043.06064057 1175.13919911 1046.83633566 1175.13715253 1050.61206055 1175.13140106 C1052.64632116 1175.12946352 1054.68058461 1175.13240596 1056.71484375 1175.13552856 C1063.22964262 1175.12056676 1069.54295547 1174.88049117 1076 1174 C1074.36877924 1168.86317438 1071.23533607 1164.95850279 1068.0625 1160.6875 C1066.87094814 1159.06095538 1065.68086733 1157.43333219 1064.4921875 1155.8046875 C1063.89889648 1154.99225586 1063.30560547 1154.17982422 1062.69433594 1153.34277344 C1060.3032567 1150.03660681 1057.98652062 1146.68308319 1055.6875 1143.3125 C1044.49925072 1126.9325214 1033.10154276 1110.69609767 1021.71777344 1094.45166016 C1018.22499519 1089.46665744 1014.7353709 1084.47944619 1011.24511719 1079.49267578 C1008.35451808 1075.36290341 1005.46323311 1071.2336153 1002.5703125 1067.10546875 C995.68271938 1057.27499493 988.81705622 1047.42957704 981.96582031 1037.57373047 C975.90199382 1028.85313321 969.81341689 1020.15003556 963.71777344 1011.45166016 C960.22499519 1006.46665744 956.7353709 1001.47944619 953.24511719 996.49267578 C950.35451808 992.36290341 947.46323311 988.2336153 944.5703125 984.10546875 C937.68271938 974.27499493 930.81705622 964.42957704 923.96582031 954.57373047 C917.90199382 945.85313321 911.81341689 937.15003556 905.71777344 928.45166016 C902.22499519 923.46665744 898.7353709 918.47944619 895.24511719 913.49267578 C892.35451808 909.36290341 889.46323311 905.2336153 886.5703125 901.10546875 C879.68271938 891.27499493 872.81705622 881.42957704 865.96582031 871.57373047 C859.90199382 862.85313321 853.81341689 854.15003556 847.71777344 845.45166016 C844.22499519 840.46665744 840.7353709 835.47944619 837.24511719 830.49267578 C834.35451808 826.36290341 831.46323311 822.2336153 828.5703125 818.10546875 C821.68271938 808.27499493 814.81705622 798.42957704 807.96582031 788.57373047 C801.90199382 779.85313321 795.81341689 771.15003556 789.71777344 762.45166016 C786.22499519 757.46665744 782.7353709 752.47944619 779.24511719 747.49267578 C776.35451808 743.36290341 773.46323311 739.2336153 770.5703125 735.10546875 C763.68271938 725.27499493 756.81705622 715.42957704 749.96582031 705.57373047 C743.90199382 696.85313321 737.81341689 688.15003556 731.71777344 679.45166016 C728.22499519 674.46665744 724.7353709 669.47944619 721.24511719 664.49267578 C718.35451808 660.36290341 715.46323311 656.2336153 712.5703125 652.10546875 C705.68271938 642.27499493 698.81705622 632.42957704 691.96582031 622.57373047 C685.90199382 613.85313321 679.81341689 605.15003556 673.71777344 596.45166016 C670.22499519 591.46665744 666.7353709 586.47944619 663.24511719 581.49267578 C660.35451808 577.36290341 657.46323311 573.2336153 654.5703125 569.10546875 C647.68271938 559.27499493 640.81705622 549.42957704 633.96582031 539.57373047 C627.33232566 530.03387386 620.66869197 520.51527078 614 511 C605.96768491 499.53903383 597.95417939 488.06538576 589.96582031 476.57373047 C583.90199382 467.85313321 577.81341689 459.15003556 571.71777344 450.45166016 C568.22499519 445.46665744 564.7353709 440.47944619 561.24511719 435.49267578 C558.35451808 431.36290341 555.46323311 427.2336153 552.5703125 423.10546875 C545.68271938 413.27499493 538.81705622 403.42957704 531.96582031 393.57373047 C525.90199382 384.85313321 519.81341689 376.15003556 513.71777344 367.45166016 C510.22499519 362.46665744 506.7353709 357.47944619 503.24511719 352.49267578 C500.35451808 348.36290341 497.46323311 344.2336153 494.5703125 340.10546875 C487.68271938 330.27499493 480.81705622 320.42957704 473.96582031 310.57373047 C467.90199382 301.85313321 461.81341689 293.15003556 455.71777344 284.45166016 C452.22499519 279.46665744 448.7353709 274.47944619 445.24511719 269.49267578 C442.35451808 265.36290341 439.46323311 261.2336153 436.5703125 257.10546875 C429.68271938 247.27499493 422.81705622 237.42957704 415.96582031 227.57373047 C409.90199382 218.85313321 403.81341689 210.15003556 397.71777344 201.45166016 C394.22499519 196.46665744 390.7353709 191.47944619 387.24511719 186.49267578 C384.35451808 182.36290341 381.46323311 178.2336153 378.5703125 174.10546875 C371.68271938 164.27499493 364.81705622 154.42957704 357.96582031 144.57373047 C351.33232535 135.03387341 344.6685971 125.51533754 338 116 C335.56205634 112.52114392 333.12464737 109.04191396 330.6875 105.5625 C330.14915527 104.79462158 329.61081055 104.02674316 329.05615234 103.2355957 C328.52586426 102.47851318 327.99557617 101.72143066 327.44921875 100.94140625 C326.91034531 100.21727036 326.37147186 99.49313446 325.81626892 98.74705505 C324 96 324 96 322.61808777 92.72601318 C320.6133883 88.64706577 318.84537523 85.52982057 315 83 C306.63661428 80.47053082 297.3561281 81.35196098 288.7265625 81.51171875 C286.08456013 81.51353311 283.44305045 81.51021246 280.80111694 81.50019836 C274.5334636 81.48760222 268.26818714 81.5409301 262.00106943 81.61836988 C255.03927956 81.70145303 248.07802993 81.71415014 241.11581278 81.71903014 C229.7215334 81.72831389 218.32845951 81.78652926 206.93457031 81.88427734 C193.46391155 81.99953507 179.99453227 82.03306618 166.5234375 82.01953125 C164.69902548 82.01819852 162.87461345 82.01687079 161.05020142 82.01554871 C157.03346372 82.01211355 153.01673338 82.00678086 149 82 Z " fill="#F7F2EF" transform="translate(370,407)"/>
</svg>
