<svg width="202" height="50" viewBox="0 0 202 50" fill="none" xmlns="http://www.w3.org/2000/svg">
<path d="M19.8359 20.4375H16.5273C15.1237 20.4375 14.112 20.082 13.4922 19.3711C12.8724 18.6419 12.5625 17.6849 12.5625 16.5C12.5625 13.875 14.5221 12.5625 18.4414 12.5625C22.1237 12.5625 24.8945 13.1094 26.7539 14.2031L25.168 15.4062C23.8919 14.8229 21.6497 14.5312 18.4414 14.5312C16.8737 14.5312 15.8164 14.7044 15.2695 15.0508C14.7409 15.3971 14.4766 15.8802 14.4766 16.5C14.4766 17.1198 14.6224 17.6029 14.9141 17.9492C15.2057 18.2956 15.7435 18.4688 16.5273 18.4688H19.918C22.3789 18.4688 24.5938 18.888 26.5625 19.7266C28.5495 20.5651 30.181 21.7135 31.457 23.1719C32.7331 24.612 33.7083 26.2799 34.3828 28.1758C35.0573 30.0534 35.3945 32.0677 35.3945 34.2188C35.3945 35.9688 35.1484 37.6276 34.6562 39.1953C34.1641 40.763 33.4167 42.2031 32.4141 43.5156C31.4297 44.8281 30.2357 45.9674 28.832 46.9336C27.4466 47.8815 25.7878 48.6198 23.8555 49.1484C21.9414 49.6953 19.8633 49.9688 17.6211 49.9688C14.1029 49.9688 10.8034 49.431 7.72266 48.3555C4.66016 47.2982 2.10807 45.8125 0.0664062 43.8984L1.65234 42.7227C3.51172 44.3997 5.83594 45.7031 8.625 46.6328C11.4323 47.5443 14.431 48 17.6211 48C20.1185 48 22.3698 47.6445 24.375 46.9336C26.3984 46.2044 28.0573 45.2109 29.3516 43.9531C30.6641 42.6953 31.6667 41.237 32.3594 39.5781C33.0703 37.9193 33.4258 36.1328 33.4258 34.2188C33.4258 31.6849 32.9154 29.3971 31.8945 27.3555C30.8737 25.2956 29.3151 23.6276 27.2188 22.3516C25.1406 21.0755 22.6797 20.4375 19.8359 20.4375ZM16.5273 22.4062H19.6445C23.3451 22.4062 26.2344 23.5365 28.3125 25.7969C30.4089 28.0573 31.457 30.8646 31.457 34.2188C31.457 37.6276 30.2448 40.4531 27.8203 42.6953C25.3958 44.9193 21.9961 46.0312 17.6211 46.0312C14.7044 46.0312 11.9792 45.6302 9.44531 44.8281C6.91146 44.026 4.80599 42.8958 3.12891 41.4375L4.66016 40.207C6.15495 41.4284 8.03255 42.3763 10.293 43.0508C12.5716 43.7253 15.0143 44.0625 17.6211 44.0625C21.4674 44.0625 24.4023 43.1419 26.4258 41.3008C28.4674 39.4596 29.4883 37.099 29.4883 34.2188C29.4883 31.375 28.6315 29.0234 26.918 27.1641C25.2227 25.3047 22.7891 24.375 19.6172 24.375H16.5273C13.8659 24.375 11.8698 23.6458 10.5391 22.1875C9.20833 20.7292 8.54297 18.8333 8.54297 16.5C8.54297 14.1667 9.36328 12.2708 11.0039 10.8125C12.6628 9.35417 15.1419 8.625 18.4414 8.625C20.7565 8.625 22.9076 8.89844 24.8945 9.44531C26.8815 9.97396 28.5221 10.7396 29.8164 11.7422L28.2578 12.9453C25.9792 11.3776 22.707 10.5938 18.4414 10.5938C15.6888 10.5938 13.6745 11.1406 12.3984 12.2344C11.1406 13.3099 10.5117 14.7318 10.5117 16.5C10.5117 18.2865 10.9766 19.7174 11.9062 20.793C12.8542 21.8685 14.3945 22.4062 16.5273 22.4062ZM16.5273 26.3438H19.5352C22.1966 26.3438 24.1927 27.082 25.5234 28.5586C26.8542 30.0352 27.5195 31.9219 27.5195 34.2188C27.5195 36.5521 26.6901 38.4479 25.0312 39.9062C23.3906 41.3646 20.9206 42.0938 17.6211 42.0938C15.306 42.0938 13.1458 41.8294 11.1406 41.3008C9.15365 40.7539 7.51302 39.9792 6.21875 38.9766L7.77734 37.7734C10.056 39.3411 13.3372 40.125 17.6211 40.125C20.3737 40.125 22.3789 39.5872 23.6367 38.5117C24.9128 37.418 25.5508 35.987 25.5508 34.2188C25.5508 32.4505 25.0768 31.0286 24.1289 29.9531C23.181 28.8594 21.6406 28.3125 19.5078 28.3125H16.5273C12.7904 28.3125 9.86458 27.2005 7.75 24.9766C5.65365 22.7344 4.60547 19.9089 4.60547 16.5C4.60547 13.0911 5.81771 10.2747 8.24219 8.05078C10.6667 5.80859 14.0664 4.6875 18.4414 4.6875C21.3581 4.6875 24.0742 5.08854 26.5898 5.89062C29.1237 6.69271 31.2292 7.82292 32.9062 9.28125L31.375 10.5117C29.8802 9.29036 28.0026 8.34245 25.7422 7.66797C23.4818 6.99349 21.0482 6.65625 18.4414 6.65625C14.5951 6.65625 11.651 7.57682 9.60938 9.41797C7.58594 11.2591 6.57422 13.6198 6.57422 16.5C6.57422 19.362 7.43099 21.7227 9.14453 23.582C10.8581 25.4232 13.319 26.3438 16.5273 26.3438ZM16.5273 30.2812H19.5352C20.9388 30.2812 21.9505 30.6458 22.5703 31.375C23.1901 32.1042 23.5 33.0521 23.5 34.2188C23.5 36.8438 21.5404 38.1562 17.6211 38.1562C13.9206 38.1562 11.1406 37.6094 9.28125 36.5156L10.8672 35.3125C12.1432 35.8958 14.3945 36.1875 17.6211 36.1875C19.1888 36.1875 20.237 36.0143 20.7656 35.668C21.3125 35.3216 21.5859 34.8385 21.5859 34.2188C21.5859 33.6172 21.431 33.1432 21.1211 32.7969C20.8294 32.4323 20.2826 32.25 19.4805 32.25H16.5273C14.0117 32.25 11.7331 31.8398 9.69141 31.0195C7.66797 30.1992 6 29.069 4.6875 27.6289C3.39323 26.1888 2.39974 24.5208 1.70703 22.625C1.01432 20.7292 0.667969 18.6875 0.667969 16.5C0.667969 14.75 0.914062 13.0911 1.40625 11.5234C1.89844 9.95573 2.63672 8.51562 3.62109 7.20312C4.6237 5.89062 5.81771 4.76042 7.20312 3.8125C8.60677 2.84635 10.2656 2.09896 12.1797 1.57031C14.112 1.02344 16.1992 0.75 18.4414 0.75C21.9596 0.75 25.25 1.28776 28.3125 2.36328C31.375 3.42057 33.9271 4.90625 35.9688 6.82031L34.3828 7.99609C32.5234 6.31901 30.1992 5.02474 27.4102 4.11328C24.6211 3.18359 21.6315 2.71875 18.4414 2.71875C15.944 2.71875 13.6836 3.08333 11.6602 3.8125C9.65495 4.52344 7.99609 5.50781 6.68359 6.76562C5.38932 8.02344 4.38672 9.48177 3.67578 11.1406C2.98307 12.7995 2.63672 14.5859 2.63672 16.5C2.63672 19.0703 3.15625 21.3854 4.19531 23.4453C5.23438 25.5052 6.82031 27.1641 8.95312 28.4219C11.0859 29.6615 13.6107 30.2812 16.5273 30.2812ZM55.5305 34.082L54.6008 37.9648L45.2492 2.71875H47.2727L55.5305 34.082ZM57.5812 26.5078L56.5695 30.2812L49.3234 2.71875H51.3195L57.5812 26.5078ZM59.632 18.6602L58.593 22.4883L53.3703 2.71875H55.4211L59.632 18.6602ZM67.425 48H65.3742L77.3508 2.77344L77.3234 2.71875H79.4016V2.77344L84.7336 21.1484L89.6281 2.71875H91.6789L79.675 48H77.6242L72.2648 29.6523L67.425 48ZM63.3234 48H61.3L73.2766 2.71875H75.3L63.3234 48ZM59.2492 48H57.2258L69.2297 2.71875H71.2258L59.2492 48ZM91.925 48H89.8742L101.851 2.71875H103.902L91.925 48ZM87.8234 48H85.8L97.7766 2.71875H99.8L87.8234 48ZM83.7492 48H81.7258L93.7297 2.71875H95.7258L83.7492 48ZM54.1633 44.1172L65.1281 2.71875H67.1789L55.175 48H53.1242L41.1477 2.71875H43.1984L54.1633 44.1172ZM73.3039 25.7969L78.6086 44.2812L79.6477 40.3711L74.3156 21.9414L73.3039 25.7969ZM75.3273 18.0859L80.6594 36.5156L81.6984 32.6602L76.3664 14.2031L75.3273 18.0859ZM77.3508 10.4297L82.7102 28.8594L83.7219 24.9766L78.4172 6.49219L77.3508 10.4297ZM122.26 2.71875H124.229V48H122.26V2.71875ZM118.323 2.71875H120.291V48H118.323V2.71875ZM114.385 2.71875H116.354V48H114.385V2.71875ZM110.448 2.71875H112.416V48H110.448V2.71875ZM146.005 48H144.037V2.71875H165.83V4.6875H146.005V6.65625H165.83V8.625H146.005V10.5938H165.83V12.5625H146.005V22.4062H164.9V24.375H146.005V26.3438H164.9V28.3125H146.005V30.2812H164.9V32.25H146.005V48ZM142.068 48H140.099V2.71875H142.068V48ZM138.13 48H136.162V2.71875H138.13V48ZM134.193 48H132.224V2.71875H134.193V48ZM172.43 4.6875V2.71875H201.962V4.6875H172.43ZM172.43 8.625V6.65625H201.962V8.625H172.43ZM172.43 12.5625V10.5938H201.962V12.5625H194.087V48H192.118V12.5625H190.149V48H188.18V12.5625H186.212V48H184.243V12.5625H182.274V48H180.305V12.5625H172.43Z" fill="#F7F2EF"/>
</svg>
